<?xml version="1.0" encoding="UTF-8" standalone="no"?>
<!DOCTYPE svg PUBLIC "-//W3C//DTD SVG 1.0//EN" "http://www.w3.org/TR/2001/REC-SVG-20010904/DTD/svg10.dtd">
<!-- Создано Microsoft Visio 11.0, Экспорт SVG, версия 1.0 fire1.svg Страница-1 -->
<svg xmlns="http://www.w3.org/2000/svg" xmlns:xlink="http://www.w3.org/1999/xlink" xmlns:ev="http://www.w3.org/2001/xml-events"
		xmlns:v="http://schemas.microsoft.com/visio/2003/SVGExtensions/" width="1.39519in" height="1.76709in"
		viewBox="0 0 100.454 127.231" xml:space="preserve" color-interpolation-filters="sRGB" class="st4">
	<v:documentProperties v:langID="1049" v:metric="true" v:viewMarkup="false"/>

	<style type="text/css">
	<![CDATA[
		.st1 {fill:url(#grad30-4);stroke:none;stroke-linecap:round;stroke-linejoin:round;stroke-width:0.24}
		.st2 {fill:url(#grad26-8);stroke:none;stroke-linecap:round;stroke-linejoin:round;stroke-width:0.24}
		.st3 {fill:url(#grad26-12);stroke:none;stroke-linecap:round;stroke-linejoin:round;stroke-width:0.24}
		.st4 {fill:none;fill-rule:evenodd;font-size:12;overflow:visible;stroke-linecap:square;stroke-miterlimit:3}
	]]>
	</style>

	<defs id="Patterns_And_Gradients">
		<linearGradient id="grad30-4" v:fillPattern="30" v:foreground="#d68a0c" v:background="#612621" x1="0" y1="1" x2="0" y2="0">
			<stop offset="0" style="stop-color:#d68a0c;stop-opacity:1"/>
			<stop offset="1" style="stop-color:#612621;stop-opacity:1"/>
		</linearGradient>
		<linearGradient id="grad26-8" v:fillPattern="26" v:foreground="#612621" v:background="#d68a0c" x1="0" y1="0" x2="1" y2="0">
			<stop offset="0" style="stop-color:#d68a0c;stop-opacity:1"/>
			<stop offset="0.5" style="stop-color:#612621;stop-opacity:1"/>
			<stop offset="1" style="stop-color:#d68a0c;stop-opacity:1"/>
		</linearGradient>
		<linearGradient id="grad26-12" v:fillPattern="26" v:foreground="#ffff00" v:background="#ea700d" x1="0" y1="0" x2="1" y2="0">
			<stop offset="0" style="stop-color:#ea700d;stop-opacity:1"/>
			<stop offset="0.5" style="stop-color:#ffff00;stop-opacity:1"/>
			<stop offset="1" style="stop-color:#ea700d;stop-opacity:1"/>
		</linearGradient>
	</defs>
	<g v:mID="0" v:index="1" v:groupContext="foregroundPage">
		<title>Страница-1</title>
		<v:pageProperties v:drawingScale="0.0393701" v:pageScale="0.0393701" v:drawingUnits="24" v:shadowOffsetX="9"
				v:shadowOffsetY="-9"/>
		<g id="shape6-1" v:mID="6" v:groupContext="shape" transform="translate(4.32864,133.443) scale(1,-1)">
			<title>Эллипс</title>
			<v:userDefs>
				<v:ud v:nameU="visVersion" v:val="VT0(14):26"/>
			</v:userDefs>
			<path d="M0 91.25 A46.1975 35.9785 0 0 1 92.39 91.25 A46.1975 35.9785 0 1 1 0 91.25 Z" class="st1"/>
		</g>
		<g id="shape4-5" v:mID="4" v:groupContext="shape" transform="translate(1.55529,168.261) scale(1,-1)">
			<title>Лист.2</title>
			<path d="M1.09 122.63 C6.26 106.93 5.62 99.33 7.73 86.41 C8.57 81.24 9.86 75.22 10.18 70.94 C10.56 66.11 9.72 63.49 10.21
						 65.83 C10.77 68.45 13 77.27 13.17 85.1 C13.32 91.92 11.91 97.99 12.18 97.01 C12.46 96.03 14.43 87.92 17.13
						 82.83 C19.57 78.23 22.6 76.09 24.43 72.63 C26.22 69.27 26.88 64.66 27.2 58.46 C27.36 55.45 27.44 52.08 27.6
						 50.8 C28.08 46.91 29.32 62.5 28.98 70.93 C28.81 75.23 28.22 77.67 27 81.13 C26.25 83.26 25.26 85.77 25.02
						 86.8 C24.44 89.41 28.73 82.48 31.94 77.16 C34.86 72.34 36.87 68.85 37.47 64.13 C38.13 59 37.09 52.41 37.08
						 52.79 C37.06 53.26 38.57 64.1 38.27 73.48 C38.13 77.7 37.63 81.63 37.47 82.83 C37.26 84.53 37.76 80.77 38.86
						 77.17 C40.64 71.31 44 65.85 46.17 57.89 C48.18 50.53 49.16 41.03 49.73 42.02 C50.4 43.21 50.46 59.43 49.73
						 67.81 C49.46 70.89 49.08 72.92 48.54 76.03 C48.18 78.12 47.75 80.7 47.75 81.98 C47.76 86.21 52.46 76.54
						 55.25 68.66 C57.62 62 58.63 56.62 58.61 57.89 C58.61 59.16 57.58 67.07 56.05 73.77 C55.4 76.6 54.65 79.22
						 54.66 80.57 C54.68 82.26 55.85 81.97 57.23 81.13 C60.63 79.07 65.19 73.69 67.11 66.39 C67.89 63.43 68.24
						 60.16 68.5 58.46 C68.78 56.56 68.96 56.63 69.09 58.46 C69.31 61.5 69.42 69.42 67.91 74.9 C67.06 77.95 65.71
						 80.25 65.54 81.98 C65.35 83.8 66.44 85 67.9 85.1 C70.86 85.3 75.34 80.96 78.38 74.9 C79.6 72.46 80.59 69.73
						 80.94 69.23 C81.5 68.43 80.46 73.16 79.76 77.17 C79.11 80.89 78.74 84.01 77.39 87.65 C76.67 89.6 75.66 91.69
						 75.81 92.47 C75.92 93.13 76.85 92.87 77.78 92.47 C80.15 91.48 82.58 89.67 84.89 86.24 C86.12 84.42 87.31
						 82.15 87.66 81.98 C88.25 81.71 86.37 87.59 85.69 91.91 C84.8 97.51 85.91 100.46 88.06 99.84 C89.78 99.35
						 92.16 96.57 94.18 93.32 C95.35 91.45 96.4 89.42 96.75 89.06 C97.45 88.34 95.36 94.3 93.58 99.22 C92.74 101.56
						 91.96 103.66 92.2 104.84 C92.59 106.79 95.75 106.18 97.15 105.05 C98.72 103.79 98.07 101.86 96.93 106.99
						 C96.02 111.12 94.8 119.83 94.37 123.07 C94 125.91 94.25 124.54 94.15 123 C93.77 117.2 88.53 108.96 81.21
						 103.5 C73.13 97.47 62.52 94.82 55.81 93.8 C50.44 92.98 47.55 93.22 41.78 94.18 C38.44 94.73 34.14 95.53
						 29.9 97.12 C23.93 99.36 18.09 103.18 14.07 107.12 C8.57 112.52 6.51 118.14 4.28 127.23 C0 123.17 2.7 120.25
						 1.09 122.63 Z" class="st2"/>
		</g>
		<g id="shape5-9" v:mID="5" v:groupContext="shape" transform="translate(-7.99361E-015,127.231) scale(1,-1)">
			<title>Лист.3</title>
			<path d="M2.27 93.31 C3.6 98.63 6.71 105.31 10.89 110.55 C18.13 119.61 28.58 124.35 39.23 126.11 C46.03 127.23 52.91
						 127.13 59.67 126.34 C65.38 125.67 71.01 124.5 76.77 121.87 C80.35 120.23 83.99 118.02 87.13 115.36 C94.49
						 109.14 99.1 100.48 100.21 93.76 C99.36 87.78 98.6 82.17 95.68 78.71 C93.76 76.45 90.92 75.11 88.96 72.68
						 C83.86 66.38 84.66 52.78 90.8 44.64 C81.96 50.51 81.59 60.17 83.29 68.45 C85.42 78.83 90.82 87.03 85.85
						 99.06 C86.32 81.29 76.08 79.78 71.19 69.65 C67.07 61.12 66.77 46.45 72.03 38.12 C62.78 43.51 61.67 58.47
						 63.53 70.72 C65 80.34 68.3 88.28 64.12 99.06 C64.64 97.9 64.78 96.4 64.78 95.04 C64.79 85.96 58.98 82.59
						 54.91 76.53 C49.68 68.72 47.35 56.44 57.21 46.62 C45.38 55.29 44.9 67.45 47.33 79.22 C48.93 86.95 51.78
						 94.51 46.34 99.06 C45.69 98.05 45.68 96.97 45.61 95.91 C44.78 82.88 35.75 74.88 42.16 53.35 C39.24 57.5
						 38.8 59.17 38.43 60.8 C35.37 74.76 38.62 85.5 38.43 99.06 C33.1 91.31 31.74 85.17 30.41 76.64 C29.78 72.54
						 29.15 67.88 32.51 61.65 C25.18 63.18 21.62 74.89 23.62 83.19 C24.33 86.16 25.76 88.69 25.6 91.13 C25.33
						 94.93 21.2 98.52 18.68 99.06 C20.93 90.69 15.05 87.63 14.73 80.64 C14.55 76.91 15.97 72.05 16.7 70.72 C16.12
						 71.44 15.4 71.27 14.73 71.28 C12.59 71.33 11.01 73.32 10.18 75.82 C7.98 82.5 11.17 92.88 7.23 97.52 C9.07
						 83.25 0 77.14 4.84 63.63 C2.74 73.65 4.57 79.09 4.68 87.17 C4.75 92.79 3.99 99.7 2.27 93.31 Z" class="st3"/>
		</g>
	</g>
</svg>
